<mxfile host="app.diagrams.net" modified="2021-05-19T13:44:13.431Z" agent="5.0 (X11; Linux x86_64) AppleWebKit/537.36 (KHTML, like Gecko) Chrome/90.0.4430.212 Safari/537.36" etag="HrwpzcoRf67dKI33ky9u" version="14.6.13" type="github">
  <diagram id="dWstBEg1BlCtbDnBJkUh" name="Page-1">
    <mxGraphModel dx="1398" dy="776" grid="1" gridSize="10" guides="1" tooltips="1" connect="1" arrows="1" fold="1" page="1" pageScale="1" pageWidth="850" pageHeight="1100" math="0" shadow="0">
      <root>
        <mxCell id="0" />
        <mxCell id="1" parent="0" />
        <mxCell id="D0N9aykd-Fys0kVplMIX-11" style="edgeStyle=orthogonalEdgeStyle;rounded=0;orthogonalLoop=1;jettySize=auto;html=1;entryX=0;entryY=0;entryDx=0;entryDy=0;jumpStyle=none;strokeColor=none;" parent="1" edge="1">
          <mxGeometry relative="1" as="geometry">
            <Array as="points">
              <mxPoint x="195" y="520" />
            </Array>
            <mxPoint x="215" y="520" as="sourcePoint" />
            <mxPoint x="195" y="575" as="targetPoint" />
          </mxGeometry>
        </mxCell>
        <mxCell id="x5zV4rrjHXliN8E77ZtF-1" value="Main" style="swimlane;" parent="1" vertex="1">
          <mxGeometry x="20" y="20" width="310" height="640" as="geometry" />
        </mxCell>
        <mxCell id="x5zV4rrjHXliN8E77ZtF-4" value="" style="ellipse;html=1;shape=startState;fillColor=#000000;strokeColor=#ff0000;" parent="x5zV4rrjHXliN8E77ZtF-1" vertex="1">
          <mxGeometry x="60" y="60" width="30" height="30" as="geometry" />
        </mxCell>
        <mxCell id="x5zV4rrjHXliN8E77ZtF-5" value="" style="edgeStyle=orthogonalEdgeStyle;html=1;verticalAlign=bottom;endArrow=open;endSize=8;strokeColor=#ff0000;entryX=0.5;entryY=0;entryDx=0;entryDy=0;" parent="x5zV4rrjHXliN8E77ZtF-1" source="x5zV4rrjHXliN8E77ZtF-4" target="x5zV4rrjHXliN8E77ZtF-7" edge="1">
          <mxGeometry relative="1" as="geometry">
            <mxPoint x="75" y="150" as="targetPoint" />
          </mxGeometry>
        </mxCell>
        <mxCell id="x5zV4rrjHXliN8E77ZtF-7" value="Reading" style="html=1;" parent="x5zV4rrjHXliN8E77ZtF-1" vertex="1">
          <mxGeometry x="20" y="190" width="110" height="50" as="geometry" />
        </mxCell>
        <mxCell id="x5zV4rrjHXliN8E77ZtF-9" value="Sending &lt;b&gt;Accounts *A&lt;/b&gt;, &lt;b&gt;Transactions *T&lt;/b&gt;, &lt;b&gt;char inputAccounts&lt;/b&gt;, &lt;b&gt;char inputTransactions&lt;/b&gt;" style="shape=note;whiteSpace=wrap;html=1;backgroundOutline=1;darkOpacity=0.05;size=23;" parent="x5zV4rrjHXliN8E77ZtF-1" vertex="1">
          <mxGeometry x="140" y="80" width="130" height="100" as="geometry" />
        </mxCell>
        <mxCell id="x5zV4rrjHXliN8E77ZtF-10" value="" style="endArrow=none;dashed=1;html=1;exitX=1;exitY=0;exitDx=0;exitDy=0;entryX=0;entryY=1;entryDx=0;entryDy=0;entryPerimeter=0;" parent="x5zV4rrjHXliN8E77ZtF-1" source="x5zV4rrjHXliN8E77ZtF-7" target="x5zV4rrjHXliN8E77ZtF-9" edge="1">
          <mxGeometry width="50" height="50" relative="1" as="geometry">
            <mxPoint x="370" y="360" as="sourcePoint" />
            <mxPoint x="420" y="310" as="targetPoint" />
          </mxGeometry>
        </mxCell>
        <mxCell id="9zXFNTsGNb4w86720hV1-5" value="Reading" style="swimlane;" vertex="1" parent="1">
          <mxGeometry x="400" y="20" width="400" height="640" as="geometry" />
        </mxCell>
      </root>
    </mxGraphModel>
  </diagram>
</mxfile>
